<?xml version="1.0" encoding="utf-8"?>
<!-- Generator: Adobe Illustrator 25.4.1, SVG Export Plug-In . SVG Version: 6.00 Build 0)  -->
<svg version="1.1" id="Layer_1" xmlns="http://www.w3.org/2000/svg" xmlns:xlink="http://www.w3.org/1999/xlink" x="0px" y="0px"
	 viewBox="0 0 100 70.71" style="enable-background:new 0 0 100 70.71;" xml:space="preserve">
<style type="text/css">
	.st0{fill:url(#SVGID_1_);}
	.st1{fill:url(#SVGID_00000012441555160390011260000011014568750448552371_);}
	.st2{opacity:0.4;fill:url(#SVGID_00000136383285398628453930000009795053739748934319_);}
	.st3{fill:url(#SVGID_00000178919912176929801290000003893872160851097523_);}
	.st4{fill:url(#SVGID_00000037690452969392109250000007987019935453590197_);}
	.st5{fill:url(#SVGID_00000119092129127129365450000015240141595389790886_);}
	.st6{fill:url(#SVGID_00000179644637481194735100000015012525044687265966_);}
	.st7{fill:url(#SVGID_00000085958748146810542240000011462945439190857892_);}
	.st8{fill:url(#SVGID_00000147922293023049554150000000941947252371863191_);}
	.st9{fill:url(#SVGID_00000039103180961024399050000017004269811444267688_);}
	.st10{fill:url(#SVGID_00000061460990656789783210000016493708736110137504_);}
</style>
<g>
	
		<radialGradient id="SVGID_1_" cx="-129.3043" cy="21.4037" r="42.2337" gradientTransform="matrix(-1 0 0 1 -74.2169 0)" gradientUnits="userSpaceOnUse">
		<stop  offset="0" style="stop-color:#FFF8C8"/>
		<stop  offset="0.1559" style="stop-color:#FEE434"/>
		<stop  offset="1" style="stop-color:#F47525"/>
	</radialGradient>
	<path class="st0" d="M27.75,35.35c0,12.29,9.96,22.25,22.25,22.25c12.29,0,22.25-9.96,22.25-22.25c0-12.29-9.96-22.25-22.25-22.25
		C37.71,13.11,27.75,23.07,27.75,35.35z"/>
	<g>
		
			<radialGradient id="SVGID_00000044866737486555267900000000046113431777072062_" cx="1099.1642" cy="-1890.0258" r="6.3396" gradientTransform="matrix(-0.8392 1.1536 -1.6186 -1.3126 -2078.0686 -3723.0945)" gradientUnits="userSpaceOnUse">
			<stop  offset="0" style="stop-color:#FFFFFF"/>
			<stop  offset="1" style="stop-color:#FFFFFF;stop-opacity:0"/>
		</radialGradient>
		<path style="fill:url(#SVGID_00000044866737486555267900000000046113431777072062_);" d="M53.39,33.06
			c-5.67-4.6-7.88-11.6-4.94-15.64c2.94-4.04,9.91-3.58,15.58,1.01c5.66,4.6,7.88,11.6,4.94,15.63
			C66.03,38.11,59.05,37.66,53.39,33.06z"/>
		
			<radialGradient id="SVGID_00000114070283332385002950000015934763229415238035_" cx="-2986.603" cy="2909.0215" r="6.1172" gradientTransform="matrix(-1.1717 -1.1007 0.222 -0.7283 -4107.7012 -1121.7112)" gradientUnits="userSpaceOnUse">
			<stop  offset="0" style="stop-color:#FFFFFF"/>
			<stop  offset="1" style="stop-color:#FFFFFF;stop-opacity:0"/>
		</radialGradient>
		<path style="opacity:0.4;fill:url(#SVGID_00000114070283332385002950000015934763229415238035_);" d="M30.34,40.27
			c0.75-2.46,4.57-1.44,8.53,2.28c3.96,3.72,6.56,8.73,5.81,11.19c-0.75,2.46-4.56,1.44-8.53-2.28
			C32.19,47.74,29.59,42.73,30.34,40.27z"/>
	</g>
	
		<radialGradient id="SVGID_00000057128385637091363200000002661963601418915980_" cx="50.4906" cy="1.3633" r="7.3486" gradientUnits="userSpaceOnUse">
		<stop  offset="0" style="stop-color:#FFF8C8"/>
		<stop  offset="0.1559" style="stop-color:#FEE434"/>
		<stop  offset="1" style="stop-color:#F47525"/>
	</radialGradient>
	<path style="fill:url(#SVGID_00000057128385637091363200000002661963601418915980_);" d="M52.7,6.53c0,1.49-1.21,2.7-2.7,2.7l0,0
		c-1.49,0-2.7-1.21-2.7-2.7V2.7C47.3,1.21,48.51,0,50,0l0,0c1.49,0,2.7,1.21,2.7,2.7V6.53z"/>
	
		<radialGradient id="SVGID_00000026866468431276614240000004975873117091431303_" cx="450.9673" cy="-235.4478" r="7.3489" gradientTransform="matrix(0.7071 -0.7071 0.7071 0.7071 -126.0815 496.3356)" gradientUnits="userSpaceOnUse">
		<stop  offset="0" style="stop-color:#FFF8C8"/>
		<stop  offset="0.1559" style="stop-color:#FEE434"/>
		<stop  offset="1" style="stop-color:#F47525"/>
	</radialGradient>
	<path style="fill:url(#SVGID_00000026866468431276614240000004975873117091431303_);" d="M31.52,13.06c1.05,1.05,1.05,2.76,0,3.82
		l0,0c-1.05,1.05-2.76,1.05-3.82,0L25,14.17c-1.05-1.05-1.05-2.76,0-3.82l0,0c1.05-1.05,2.76-1.05,3.82,0L31.52,13.06z"/>
	
		<radialGradient id="SVGID_00000062170308097089281720000015509326684961531065_" cx="901.5099" cy="-119.9069" r="7.3486" gradientTransform="matrix(0 -1 1 0 135.9162 936.3724)" gradientUnits="userSpaceOnUse">
		<stop  offset="0" style="stop-color:#FFF8C8"/>
		<stop  offset="0.1559" style="stop-color:#FEE434"/>
		<stop  offset="1" style="stop-color:#F47525"/>
	</radialGradient>
	<path style="fill:url(#SVGID_00000062170308097089281720000015509326684961531065_);" d="M21.17,32.66c1.49,0,2.7,1.21,2.7,2.7l0,0
		c0,1.49-1.21,2.7-2.7,2.7h-3.83c-1.49,0-2.7-1.21-2.7-2.7l0,0c0-1.49,1.21-2.7,2.7-2.7H21.17z"/>
	
		<radialGradient id="SVGID_00000028323755404852580520000009577846400466256826_" cx="1138.4849" cy="280.5675" r="7.3489" gradientTransform="matrix(-0.7071 -0.7071 0.7071 -0.7071 632.251 1062.4529)" gradientUnits="userSpaceOnUse">
		<stop  offset="0" style="stop-color:#FFF8C8"/>
		<stop  offset="0.1559" style="stop-color:#FEE434"/>
		<stop  offset="1" style="stop-color:#F47525"/>
	</radialGradient>
	<path style="fill:url(#SVGID_00000028323755404852580520000009577846400466256826_);" d="M27.71,53.83c1.05-1.05,2.76-1.05,3.82,0
		l0,0c1.05,1.05,1.05,2.76,0,3.82l-2.71,2.71c-1.05,1.05-2.76,1.05-3.82,0l0,0c-1.05-1.05-1.05-2.76,0-3.82L27.71,53.83z"/>
	
		<radialGradient id="SVGID_00000042724835295180435870000002064696329198416780_" cx="1022.7775" cy="731.1131" r="7.3488" gradientTransform="matrix(-1 0 0 -1 1072.286 800.4569)" gradientUnits="userSpaceOnUse">
		<stop  offset="0" style="stop-color:#FFF8C8"/>
		<stop  offset="0.1559" style="stop-color:#FEE434"/>
		<stop  offset="1" style="stop-color:#F47525"/>
	</radialGradient>
	<path style="fill:url(#SVGID_00000042724835295180435870000002064696329198416780_);" d="M47.3,64.18c0-1.49,1.21-2.7,2.7-2.7l0,0
		c1.49,0,2.7,1.21,2.7,2.7l0,3.83c0,1.49-1.21,2.7-2.7,2.7l0,0c-1.49,0-2.7-1.21-2.7-2.7L47.3,64.18z"/>
	
		<radialGradient id="SVGID_00000173141818630542402350000004438685979709153215_" cx="622.4674" cy="968.0889" r="7.349" gradientTransform="matrix(-0.7071 0.7071 -0.7071 -0.7071 1198.3704 304.1243)" gradientUnits="userSpaceOnUse">
		<stop  offset="0" style="stop-color:#FFF8C8"/>
		<stop  offset="0.1559" style="stop-color:#FEE434"/>
		<stop  offset="1" style="stop-color:#F47525"/>
	</radialGradient>
	<path style="fill:url(#SVGID_00000173141818630542402350000004438685979709153215_);" d="M68.48,57.64c-1.05-1.05-1.06-2.76,0-3.82
		l0,0c1.05-1.05,2.76-1.05,3.82,0L75,56.53c1.05,1.05,1.05,2.76,0,3.82l0,0c-1.06,1.05-2.76,1.05-3.82,0L68.48,57.64z"/>
	
		<radialGradient id="SVGID_00000163758226757677434090000017193656228642766244_" cx="171.7573" cy="852.3857" r="7.3486" gradientTransform="matrix(0 1 -1 0 936.3763 -135.9135)" gradientUnits="userSpaceOnUse">
		<stop  offset="0" style="stop-color:#FFF8C8"/>
		<stop  offset="0.1559" style="stop-color:#FEE434"/>
		<stop  offset="1" style="stop-color:#F47525"/>
	</radialGradient>
	<path style="fill:url(#SVGID_00000163758226757677434090000017193656228642766244_);" d="M78.83,38.05c-1.49,0-2.7-1.21-2.7-2.7
		l0,0c0-1.49,1.21-2.7,2.7-2.7h3.83c1.49,0,2.7,1.21,2.7,2.7l0,0c0,1.49-1.21,2.7-2.7,2.7H78.83z"/>
	
		<radialGradient id="SVGID_00000018954865555472786020000018098439710106921355_" cx="-65.0526" cy="452.0738" r="7.3488" gradientTransform="matrix(0.7071 0.7071 -0.7071 0.7071 440.0417 -261.9979)" gradientUnits="userSpaceOnUse">
		<stop  offset="0" style="stop-color:#FFF8C8"/>
		<stop  offset="0.1559" style="stop-color:#FEE434"/>
		<stop  offset="1" style="stop-color:#F47525"/>
	</radialGradient>
	<path style="fill:url(#SVGID_00000018954865555472786020000018098439710106921355_);" d="M72.29,16.88c-1.05,1.05-2.76,1.06-3.82,0
		l0,0c-1.05-1.05-1.05-2.76,0-3.82l2.71-2.71c1.05-1.05,2.76-1.05,3.82,0l0,0c1.05,1.06,1.05,2.76,0,3.82L72.29,16.88z"/>
</g>
</svg>
